<svg width="422" height="491" viewBox="0 0 422 491" fill="none" xmlns="http://www.w3.org/2000/svg">
<g filter="url(#filter0_dn_41_94)">
<mask id="path-1-inside-1_41_94" fill="white">
<path d="M363.409 474.481C363.409 477.149 364.763 478.561 367.47 478.716V482.718C361.67 482.718 358.77 479.817 358.77 474.017V439.333H363.409V474.481ZM82.2148 442.233C88.1308 442.233 91.0889 445.191 91.0889 451.107V473.38C91.0887 479.295 88.1307 482.254 82.2148 482.254H68.6436C62.7277 482.254 59.7697 479.295 59.7695 473.38V451.107C59.7695 445.191 62.7276 442.233 68.6436 442.233H82.2148ZM134.601 452.094C140.4 452.094 143.301 454.993 143.301 460.793V482.254H138.66V460.214C138.66 457.507 137.307 456.153 134.601 456.153H124.16V482.254H119.521V456.153H105.021V482.254H100.381V452.094H134.601ZM168.616 452.094C174.416 452.094 177.316 454.993 177.316 460.793V482.254H172.677V460.214C172.677 457.507 171.323 456.153 168.616 456.153H157.017V482.254H152.377V452.094H168.616ZM191.001 482.254H186.361V452.094H191.001V482.254ZM205.746 462.765L224.133 442.233H228.599L229.12 443.335L215.316 458.705L230.454 481.151L229.99 482.254H225.467L212.127 462.243L205.746 469.261V482.254H200.875V442.233H205.746V462.765ZM252.604 452.094C258.403 452.094 261.304 454.993 261.304 460.793V468.971H241.004V474.134C241.004 476.84 242.357 478.193 245.063 478.193H260.144V480.513L257.824 482.254H245.063C239.264 482.254 236.363 479.353 236.363 473.553V460.793C236.363 454.993 239.264 452.094 245.063 452.094H252.604ZM285.561 453.833V456.153H278.078C276.454 456.153 275.275 456.598 274.54 457.487V482.254H269.9V455.573C271.254 453.253 273.767 452.094 277.44 452.094H283.24L285.561 453.833ZM307.952 452.094C313.752 452.094 316.652 454.993 316.652 460.793V482.254H312.013V460.214C312.013 457.507 310.659 456.153 307.952 456.153H296.353V482.254H291.713V452.094H307.952ZM341.473 452.094C347.273 452.094 350.173 454.993 350.173 460.793V468.971H329.873V474.134C329.873 476.84 331.226 478.193 333.933 478.193H349.013V480.513L346.693 482.254H333.933C328.133 482.254 325.233 479.353 325.233 473.553V460.793C325.234 454.993 328.133 452.094 333.933 452.094H341.473ZM68.585 446.641C65.9559 446.641 64.6418 447.956 64.6416 450.585V473.901C64.6416 476.53 65.9558 477.845 68.585 477.845H82.2734C84.9026 477.845 86.2168 476.53 86.2168 473.901V450.585C86.2166 447.956 84.9024 446.641 82.2734 446.641H68.585ZM245.063 456.153C242.357 456.153 241.004 457.507 241.004 460.214V465.201H256.664V460.214C256.664 457.507 255.31 456.153 252.604 456.153H245.063ZM333.933 456.153C331.226 456.153 329.873 457.507 329.873 460.214V465.201H345.533V460.214C345.533 457.507 344.179 456.153 341.473 456.153H333.933ZM191.233 446.468H186.129V441.015H191.233V446.468ZM208.939 246.033C210.627 245.452 212.497 245.815 213.845 246.985L246.967 275.744L364.289 377.012C367.196 379.521 366.306 384.235 362.686 385.512L350.783 389.713C349.092 390.309 347.21 389.955 345.853 388.784L272.649 325.627L89.6387 388.643C87.9507 389.224 86.0804 388.862 84.7324 387.691L9.72363 322.563C6.81641 320.039 7.73364 315.314 11.374 314.06L208.939 246.033ZM264.224 29.95C264.943 26.1782 269.47 24.5908 272.387 27.0876L281.976 35.2957C283.338 36.4618 283.971 38.2685 283.636 40.03L265.619 134.597L411.538 261.443C412.885 262.614 413.506 264.415 413.167 266.168L394.269 363.691C393.536 367.471 388.985 369.039 386.079 366.513L228.384 229.43C227.036 228.259 226.415 226.458 226.755 224.706L245.653 127.182C245.682 127.033 245.718 126.887 245.759 126.745L264.224 29.95ZM237.969 8.28003C241.609 7.02444 245.242 10.1812 244.508 13.9607L204.638 219.071C204.297 220.823 203.048 222.261 201.36 222.844L114.266 252.888L15.0498 287.44C11.4237 288.703 7.78646 285.576 8.49023 281.802L10.8037 269.394C11.1325 267.631 12.3809 266.18 14.0742 265.59L103.883 234.29L140.784 44.448C141.125 42.6957 142.374 41.2579 144.062 40.6755L237.969 8.28003Z"/>
</mask>
<path d="M363.409 474.481C363.409 477.149 364.763 478.561 367.47 478.716V482.718C361.67 482.718 358.77 479.817 358.77 474.017V439.333H363.409V474.481ZM82.2148 442.233C88.1308 442.233 91.0889 445.191 91.0889 451.107V473.38C91.0887 479.295 88.1307 482.254 82.2148 482.254H68.6436C62.7277 482.254 59.7697 479.295 59.7695 473.38V451.107C59.7695 445.191 62.7276 442.233 68.6436 442.233H82.2148ZM134.601 452.094C140.4 452.094 143.301 454.993 143.301 460.793V482.254H138.66V460.214C138.66 457.507 137.307 456.153 134.601 456.153H124.16V482.254H119.521V456.153H105.021V482.254H100.381V452.094H134.601ZM168.616 452.094C174.416 452.094 177.316 454.993 177.316 460.793V482.254H172.677V460.214C172.677 457.507 171.323 456.153 168.616 456.153H157.017V482.254H152.377V452.094H168.616ZM191.001 482.254H186.361V452.094H191.001V482.254ZM205.746 462.765L224.133 442.233H228.599L229.12 443.335L215.316 458.705L230.454 481.151L229.99 482.254H225.467L212.127 462.243L205.746 469.261V482.254H200.875V442.233H205.746V462.765ZM252.604 452.094C258.403 452.094 261.304 454.993 261.304 460.793V468.971H241.004V474.134C241.004 476.84 242.357 478.193 245.063 478.193H260.144V480.513L257.824 482.254H245.063C239.264 482.254 236.363 479.353 236.363 473.553V460.793C236.363 454.993 239.264 452.094 245.063 452.094H252.604ZM285.561 453.833V456.153H278.078C276.454 456.153 275.275 456.598 274.54 457.487V482.254H269.9V455.573C271.254 453.253 273.767 452.094 277.44 452.094H283.24L285.561 453.833ZM307.952 452.094C313.752 452.094 316.652 454.993 316.652 460.793V482.254H312.013V460.214C312.013 457.507 310.659 456.153 307.952 456.153H296.353V482.254H291.713V452.094H307.952ZM341.473 452.094C347.273 452.094 350.173 454.993 350.173 460.793V468.971H329.873V474.134C329.873 476.84 331.226 478.193 333.933 478.193H349.013V480.513L346.693 482.254H333.933C328.133 482.254 325.233 479.353 325.233 473.553V460.793C325.234 454.993 328.133 452.094 333.933 452.094H341.473ZM68.585 446.641C65.9559 446.641 64.6418 447.956 64.6416 450.585V473.901C64.6416 476.53 65.9558 477.845 68.585 477.845H82.2734C84.9026 477.845 86.2168 476.53 86.2168 473.901V450.585C86.2166 447.956 84.9024 446.641 82.2734 446.641H68.585ZM245.063 456.153C242.357 456.153 241.004 457.507 241.004 460.214V465.201H256.664V460.214C256.664 457.507 255.31 456.153 252.604 456.153H245.063ZM333.933 456.153C331.226 456.153 329.873 457.507 329.873 460.214V465.201H345.533V460.214C345.533 457.507 344.179 456.153 341.473 456.153H333.933ZM191.233 446.468H186.129V441.015H191.233V446.468ZM208.939 246.033C210.627 245.452 212.497 245.815 213.845 246.985L246.967 275.744L364.289 377.012C367.196 379.521 366.306 384.235 362.686 385.512L350.783 389.713C349.092 390.309 347.21 389.955 345.853 388.784L272.649 325.627L89.6387 388.643C87.9507 389.224 86.0804 388.862 84.7324 387.691L9.72363 322.563C6.81641 320.039 7.73364 315.314 11.374 314.06L208.939 246.033ZM264.224 29.95C264.943 26.1782 269.47 24.5908 272.387 27.0876L281.976 35.2957C283.338 36.4618 283.971 38.2685 283.636 40.03L265.619 134.597L411.538 261.443C412.885 262.614 413.506 264.415 413.167 266.168L394.269 363.691C393.536 367.471 388.985 369.039 386.079 366.513L228.384 229.43C227.036 228.259 226.415 226.458 226.755 224.706L245.653 127.182C245.682 127.033 245.718 126.887 245.759 126.745L264.224 29.95ZM237.969 8.28003C241.609 7.02444 245.242 10.1812 244.508 13.9607L204.638 219.071C204.297 220.823 203.048 222.261 201.36 222.844L114.266 252.888L15.0498 287.44C11.4237 288.703 7.78646 285.576 8.49023 281.802L10.8037 269.394C11.1325 267.631 12.3809 266.18 14.0742 265.59L103.883 234.29L140.784 44.448C141.125 42.6957 142.374 41.2579 144.062 40.6755L237.969 8.28003Z" fill="url(#paint0_linear_41_94)"/>
<path d="M363.409 474.481L362.609 474.481L362.609 474.481L363.409 474.481ZM367.47 478.716H368.27V477.96L367.515 477.917L367.47 478.716ZM367.47 482.718V483.518H368.27V482.718H367.47ZM358.77 474.017L357.97 474.017L357.97 474.017L358.77 474.017ZM358.77 439.333V438.533H357.97V439.333H358.77ZM363.409 439.333H364.209V438.533H363.409V439.333ZM91.0889 451.107L91.8889 451.107L91.8889 451.107L91.0889 451.107ZM91.0889 473.38L91.8889 473.38V473.38H91.0889ZM59.7695 473.38L58.9695 473.38L58.9695 473.38L59.7695 473.38ZM59.7695 451.107L58.9695 451.107V451.107H59.7695ZM134.601 452.094L134.601 451.294H134.601V452.094ZM143.301 460.793L144.101 460.793L144.101 460.793L143.301 460.793ZM143.301 482.254V483.054H144.101V482.254H143.301ZM138.66 482.254H137.86V483.054H138.66V482.254ZM134.601 456.153L134.601 455.353H134.601V456.153ZM124.16 456.153V455.353H123.36V456.153H124.16ZM124.16 482.254V483.054H124.96V482.254H124.16ZM119.521 482.254H118.721V483.054H119.521V482.254ZM119.521 456.153H120.321V455.353H119.521V456.153ZM105.021 456.153V455.353H104.221V456.153H105.021ZM105.021 482.254V483.054H105.821V482.254H105.021ZM100.381 482.254H99.5809V483.054H100.381V482.254ZM100.381 452.094V451.294H99.5809V452.094H100.381ZM177.316 460.793L178.116 460.793L178.116 460.793L177.316 460.793ZM177.316 482.254V483.054H178.116V482.254H177.316ZM172.677 482.254H171.877V483.054H172.677V482.254ZM157.017 456.153V455.353H156.217V456.153H157.017ZM157.017 482.254V483.054H157.817V482.254H157.017ZM152.377 482.254H151.577V483.054H152.377V482.254ZM152.377 452.094V451.294H151.577V452.094H152.377ZM191.001 482.254V483.054H191.801V482.254H191.001ZM186.361 482.254H185.561V483.054H186.361V482.254ZM186.361 452.094V451.294H185.561V452.094H186.361ZM191.001 452.094H191.801V451.294H191.001V452.094ZM205.746 462.765H204.946V464.858L206.342 463.299L205.746 462.765ZM224.133 442.233V441.433H223.775L223.537 441.699L224.133 442.233ZM228.599 442.233L229.322 441.891L229.105 441.433H228.599V442.233ZM229.12 443.335L229.715 443.869L230.071 443.473L229.843 442.992L229.12 443.335ZM215.316 458.705L214.721 458.17L214.304 458.635L214.653 459.152L215.316 458.705ZM230.454 481.151L231.191 481.461L231.359 481.063L231.117 480.704L230.454 481.151ZM229.99 482.254V483.054H230.522L230.728 482.564L229.99 482.254ZM225.467 482.254L224.801 482.697L225.039 483.054H225.467V482.254ZM212.127 462.243L212.793 461.799L212.224 460.947L211.535 461.705L212.127 462.243ZM205.746 469.261L205.154 468.723L204.946 468.952V469.261H205.746ZM205.746 482.254V483.054H206.546V482.254H205.746ZM200.875 482.254H200.075V483.054H200.875V482.254ZM200.875 442.233V441.433H200.075V442.233H200.875ZM205.746 442.233H206.546V441.433H205.746V442.233ZM261.304 460.793L262.104 460.793L262.104 460.793L261.304 460.793ZM261.304 468.971V469.771H262.104V468.971H261.304ZM241.004 468.971V468.171H240.204V468.971H241.004ZM241.004 474.134L240.204 474.134L240.204 474.134L241.004 474.134ZM245.063 478.193L245.063 478.993H245.063V478.193ZM260.144 478.193H260.944V477.393H260.144V478.193ZM260.144 480.513L260.624 481.153L260.944 480.913V480.513H260.144ZM257.824 482.254V483.054H258.091L258.304 482.894L257.824 482.254ZM245.063 482.254L245.063 483.054H245.063V482.254ZM236.363 473.553L235.563 473.553L235.563 473.553L236.363 473.553ZM236.363 460.793L235.563 460.793V460.793H236.363ZM245.063 452.094L245.063 451.294L245.063 451.294L245.063 452.094ZM285.561 453.833H286.361V453.433L286.04 453.193L285.561 453.833ZM285.561 456.153V456.953H286.361V456.153H285.561ZM278.078 456.153L278.078 455.353L278.078 455.353L278.078 456.153ZM274.54 457.487L273.923 456.978L273.74 457.199V457.487H274.54ZM274.54 482.254V483.054H275.34V482.254H274.54ZM269.9 482.254H269.1V483.054H269.9V482.254ZM269.9 455.573L269.209 455.17L269.1 455.357V455.573H269.9ZM277.44 452.094L277.44 451.294L277.44 451.294L277.44 452.094ZM283.24 452.094L283.72 451.453L283.507 451.294H283.24V452.094ZM316.652 460.793L317.452 460.793L317.452 460.793L316.652 460.793ZM316.652 482.254V483.054H317.452V482.254H316.652ZM312.013 482.254H311.213V483.054H312.013V482.254ZM296.353 456.153V455.353H295.553V456.153H296.353ZM296.353 482.254V483.054H297.153V482.254H296.353ZM291.713 482.254H290.913V483.054H291.713V482.254ZM291.713 452.094V451.294H290.913V452.094H291.713ZM350.173 460.793L350.973 460.793L350.973 460.793L350.173 460.793ZM350.173 468.971V469.771H350.973V468.971H350.173ZM329.873 468.971V468.171H329.073V468.971H329.873ZM329.873 474.134L329.073 474.134L329.073 474.134L329.873 474.134ZM333.933 478.193L333.933 478.993H333.933V478.193ZM349.013 478.193H349.813V477.393H349.013V478.193ZM349.013 480.513L349.493 481.153L349.813 480.913V480.513H349.013ZM346.693 482.254V483.054H346.96L347.173 482.894L346.693 482.254ZM333.933 482.254L333.933 483.054H333.933V482.254ZM325.233 473.553L324.433 473.553L324.433 473.553L325.233 473.553ZM325.233 460.793L324.433 460.793V460.793H325.233ZM333.933 452.094L333.933 451.294L333.933 451.294L333.933 452.094ZM68.585 446.641L68.585 445.841L68.5849 445.841L68.585 446.641ZM64.6416 450.585L63.8416 450.585V450.585H64.6416ZM68.585 477.845L68.5849 478.645H68.585V477.845ZM82.2734 477.845L82.2734 478.645L82.2735 478.645L82.2734 477.845ZM86.2168 450.585L87.0168 450.585L87.0168 450.585L86.2168 450.585ZM82.2734 446.641L82.2735 445.841H82.2734V446.641ZM245.063 456.153L245.063 455.353L245.063 455.353L245.063 456.153ZM241.004 465.201H240.204V466.001H241.004V465.201ZM256.664 465.201V466.001H257.464V465.201H256.664ZM333.933 456.153L333.933 455.353L333.933 455.353L333.933 456.153ZM329.873 465.201H329.073V466.001H329.873V465.201ZM345.533 465.201V466.001H346.333V465.201H345.533ZM191.233 446.468V447.268H192.033V446.468H191.233ZM186.129 446.468H185.329V447.268H186.129V446.468ZM186.129 441.015V440.215H185.329V441.015H186.129ZM191.233 441.015H192.033V440.215H191.233V441.015ZM208.939 246.033L208.679 245.277L208.679 245.277L208.939 246.033ZM213.845 246.985L214.369 246.381L214.369 246.381L213.845 246.985ZM246.967 275.744L246.442 276.348L246.444 276.349L246.967 275.744ZM364.289 377.012L364.812 376.407L364.812 376.407L364.289 377.012ZM362.686 385.512L362.952 386.267L362.952 386.267L362.686 385.512ZM350.783 389.713L351.049 390.467L351.049 390.467L350.783 389.713ZM345.853 388.784L345.33 389.39L345.33 389.39L345.853 388.784ZM272.649 325.627L273.172 325.021L272.824 324.721L272.389 324.87L272.649 325.627ZM89.6387 388.643L89.8991 389.4L89.8991 389.4L89.6387 388.643ZM84.7324 387.691L84.2079 388.295L84.2079 388.295L84.7324 387.691ZM9.72363 322.563L9.19913 323.167L9.19914 323.167L9.72363 322.563ZM11.374 314.06L11.1136 313.304L11.1135 313.304L11.374 314.06ZM264.224 29.95L265.009 30.0999L265.009 30.0999L264.224 29.95ZM272.387 27.0876L272.907 26.4799L272.907 26.4799L272.387 27.0876ZM281.976 35.2957L282.496 34.6879L282.496 34.6879L281.976 35.2957ZM283.636 40.03L284.422 40.1797L284.422 40.1797L283.636 40.03ZM265.619 134.597L264.833 134.448L264.747 134.899L265.094 135.201L265.619 134.597ZM411.538 261.443L412.063 260.839L412.063 260.839L411.538 261.443ZM413.167 266.168L413.952 266.32L413.952 266.32L413.167 266.168ZM394.269 363.691L395.054 363.843L395.054 363.843L394.269 363.691ZM386.079 366.513L385.554 367.117L385.554 367.117L386.079 366.513ZM228.384 229.43L227.859 230.034L227.859 230.034L228.384 229.43ZM226.755 224.706L225.969 224.554L225.969 224.554L226.755 224.706ZM245.653 127.182L244.868 127.03L244.868 127.03L245.653 127.182ZM245.759 126.745L246.528 126.964L246.538 126.93L246.545 126.895L245.759 126.745ZM237.969 8.28003L237.708 7.52376L237.708 7.52376L237.969 8.28003ZM244.508 13.9607L245.293 14.1133L245.293 14.1133L244.508 13.9607ZM204.638 219.071L205.423 219.224L205.423 219.224L204.638 219.071ZM201.36 222.844L201.621 223.6L201.621 223.6L201.36 222.844ZM114.266 252.888L114.005 252.132L114.003 252.133L114.266 252.888ZM15.0498 287.44L15.3129 288.196L15.3129 288.196L15.0498 287.44ZM8.49023 281.802L7.70379 281.655L7.70379 281.655L8.49023 281.802ZM10.8037 269.394L10.0173 269.248L10.0173 269.248L10.8037 269.394ZM14.0742 265.59L13.8109 264.834L13.8109 264.834L14.0742 265.59ZM103.883 234.29L104.146 235.045L104.58 234.894L104.668 234.442L103.883 234.29ZM140.784 44.448L139.999 44.2954L139.999 44.2954L140.784 44.448ZM144.062 40.6755L143.801 39.9193L143.801 39.9193L144.062 40.6755ZM363.409 474.481L362.609 474.481C362.609 475.945 362.982 477.193 363.847 478.095C364.71 478.995 365.947 479.43 367.424 479.514L367.47 478.716L367.515 477.917C366.285 477.847 365.492 477.499 365.002 476.987C364.513 476.478 364.209 475.685 364.209 474.481L363.409 474.481ZM367.47 478.716H366.67V482.718H367.47H368.27V478.716H367.47ZM367.47 482.718V481.918C364.693 481.918 362.757 481.224 361.51 479.977C360.263 478.73 359.57 476.794 359.57 474.017L358.77 474.017L357.97 474.017C357.97 477.041 358.726 479.455 360.379 481.108C362.032 482.761 364.446 483.518 367.47 483.518V482.718ZM358.77 474.017H359.57V439.333H358.77H357.97V474.017H358.77ZM358.77 439.333V440.133H363.409V439.333V438.533H358.77V439.333ZM363.409 439.333H362.609V474.481H363.409H364.209V439.333H363.409ZM82.2148 442.233V443.033C85.0495 443.033 87.0286 443.741 88.3047 445.017C89.5807 446.293 90.2889 448.272 90.2889 451.107L91.0889 451.107L91.8889 451.107C91.8889 448.026 91.118 445.568 89.436 443.886C87.7541 442.204 85.2962 441.433 82.2148 441.433V442.233ZM91.0889 451.107H90.2889V473.38H91.0889H91.8889V451.107H91.0889ZM91.0889 473.38L90.2889 473.38C90.2888 476.214 89.5806 478.193 88.3046 479.469C87.0285 480.745 85.0494 481.454 82.2148 481.454V482.254V483.054C85.2961 483.054 87.754 482.283 89.4359 480.601C91.1179 478.919 91.8888 476.461 91.8889 473.38L91.0889 473.38ZM82.2148 482.254V481.454H68.6436V482.254V483.054H82.2148V482.254ZM68.6436 482.254V481.454C65.809 481.454 63.8299 480.745 62.5538 479.469C61.2778 478.193 60.5696 476.214 60.5695 473.38L59.7695 473.38L58.9695 473.38C58.9696 476.461 59.7405 478.919 61.4225 480.601C63.1044 482.283 65.5623 483.054 68.6436 483.054V482.254ZM59.7695 473.38H60.5695V451.107H59.7695H58.9695V473.38H59.7695ZM59.7695 451.107L60.5695 451.107C60.5695 448.272 61.2777 446.293 62.5537 445.017C63.8298 443.741 65.8089 443.033 68.6436 443.033V442.233V441.433C65.5622 441.433 63.1043 442.204 61.4224 443.886C59.7404 445.568 58.9695 448.026 58.9695 451.107L59.7695 451.107ZM68.6436 442.233V443.033H82.2148V442.233V441.433H68.6436V442.233ZM134.601 452.094L134.601 452.894C137.377 452.894 139.313 453.587 140.56 454.834C141.807 456.081 142.501 458.016 142.501 460.793L143.301 460.793L144.101 460.793C144.101 457.77 143.344 455.355 141.691 453.703C140.038 452.05 137.624 451.294 134.601 451.294L134.601 452.094ZM143.301 460.793H142.501V482.254H143.301H144.101V460.793H143.301ZM143.301 482.254V481.454H138.66V482.254V483.054H143.301V482.254ZM138.66 482.254H139.46V460.214H138.66H137.86V482.254H138.66ZM138.66 460.214H139.46C139.46 458.737 139.091 457.483 138.211 456.603C137.332 455.723 136.077 455.353 134.601 455.353L134.601 456.153L134.601 456.953C135.83 456.953 136.606 457.26 137.08 457.734C137.553 458.208 137.86 458.984 137.86 460.214H138.66ZM134.601 456.153V455.353H124.16V456.153V456.953H134.601V456.153ZM124.16 456.153H123.36V482.254H124.16H124.96V456.153H124.16ZM124.16 482.254V481.454H119.521V482.254V483.054H124.16V482.254ZM119.521 482.254H120.321V456.153H119.521H118.721V482.254H119.521ZM119.521 456.153V455.353H105.021V456.153V456.953H119.521V456.153ZM105.021 456.153H104.221V482.254H105.021H105.821V456.153H105.021ZM105.021 482.254V481.454H100.381V482.254V483.054H105.021V482.254ZM100.381 482.254H101.181V452.094H100.381H99.5809V482.254H100.381ZM100.381 452.094V452.894H134.601V452.094V451.294H100.381V452.094ZM168.616 452.094V452.894C171.393 452.894 173.328 453.587 174.576 454.834C175.823 456.081 176.516 458.016 176.516 460.793L177.316 460.793L178.116 460.793C178.116 457.77 177.36 455.355 175.707 453.703C174.054 452.05 171.639 451.294 168.616 451.294V452.094ZM177.316 460.793H176.516V482.254H177.316H178.116V460.793H177.316ZM177.316 482.254V481.454H172.677V482.254V483.054H177.316V482.254ZM172.677 482.254H173.477V460.214H172.677H171.877V482.254H172.677ZM172.677 460.214H173.477C173.477 458.737 173.107 457.482 172.227 456.603C171.347 455.723 170.093 455.353 168.616 455.353V456.153V456.953C169.846 456.953 170.622 457.26 171.096 457.734C171.57 458.208 171.877 458.984 171.877 460.214H172.677ZM168.616 456.153V455.353H157.017V456.153V456.953H168.616V456.153ZM157.017 456.153H156.217V482.254H157.017H157.817V456.153H157.017ZM157.017 482.254V481.454H152.377V482.254V483.054H157.017V482.254ZM152.377 482.254H153.177V452.094H152.377H151.577V482.254H152.377ZM152.377 452.094V452.894H168.616V452.094V451.294H152.377V452.094ZM191.001 482.254V481.454H186.361V482.254V483.054H191.001V482.254ZM186.361 482.254H187.161V452.094H186.361H185.561V482.254H186.361ZM186.361 452.094V452.894H191.001V452.094V451.294H186.361V452.094ZM191.001 452.094H190.201V482.254H191.001H191.801V452.094H191.001ZM205.746 462.765L206.342 463.299L224.729 442.767L224.133 442.233L223.537 441.699L205.15 462.232L205.746 462.765ZM224.133 442.233V443.033H228.599V442.233V441.433H224.133V442.233ZM228.599 442.233L227.876 442.575L228.397 443.677L229.12 443.335L229.843 442.992L229.322 441.891L228.599 442.233ZM229.12 443.335L228.525 442.8L214.721 458.17L215.316 458.705L215.912 459.239L229.715 443.869L229.12 443.335ZM215.316 458.705L214.653 459.152L229.791 481.598L230.454 481.151L231.117 480.704L215.98 458.258L215.316 458.705ZM230.454 481.151L229.717 480.841L229.253 481.943L229.99 482.254L230.728 482.564L231.191 481.461L230.454 481.151ZM229.99 482.254V481.454H225.467V482.254V483.054H229.99V482.254ZM225.467 482.254L226.132 481.81L212.793 461.799L212.127 462.243L211.461 462.687L224.801 482.697L225.467 482.254ZM212.127 462.243L211.535 461.705L205.154 468.723L205.746 469.261L206.338 469.8L212.719 462.781L212.127 462.243ZM205.746 469.261H204.946V482.254H205.746H206.546V469.261H205.746ZM205.746 482.254V481.454H200.875V482.254V483.054H205.746V482.254ZM200.875 482.254H201.675V442.233H200.875H200.075V482.254H200.875ZM200.875 442.233V443.033H205.746V442.233V441.433H200.875V442.233ZM205.746 442.233H204.946V462.765H205.746H206.546V442.233H205.746ZM252.604 452.094V452.894C255.38 452.894 257.316 453.587 258.563 454.834C259.81 456.081 260.504 458.016 260.504 460.793L261.304 460.793L262.104 460.793C262.104 457.77 261.347 455.355 259.694 453.703C258.041 452.05 255.627 451.294 252.604 451.294V452.094ZM261.304 460.793H260.504V468.971H261.304H262.104V460.793H261.304ZM261.304 468.971V468.171H241.004V468.971V469.771H261.304V468.971ZM241.004 468.971H240.204V474.134H241.004H241.804V468.971H241.004ZM241.004 474.134L240.204 474.134C240.204 475.61 240.574 476.864 241.453 477.744C242.333 478.623 243.587 478.993 245.063 478.993L245.063 478.193L245.064 477.393C243.834 477.393 243.058 477.086 242.585 476.612C242.111 476.139 241.804 475.363 241.804 474.134L241.004 474.134ZM245.063 478.193V478.993H260.144V478.193V477.393H245.063V478.193ZM260.144 478.193H259.344V480.513H260.144H260.944V478.193H260.144ZM260.144 480.513L259.663 479.874L257.344 481.614L257.824 482.254L258.304 482.894L260.624 481.153L260.144 480.513ZM257.824 482.254V481.454H245.063V482.254V483.054H257.824V482.254ZM245.063 482.254L245.063 481.454C242.287 481.454 240.351 480.76 239.104 479.513C237.857 478.266 237.163 476.33 237.163 473.553L236.363 473.553L235.563 473.553C235.563 476.577 236.32 478.991 237.973 480.644C239.626 482.297 242.04 483.054 245.063 483.054L245.063 482.254ZM236.363 473.553H237.163V460.793H236.363H235.563V473.553H236.363ZM236.363 460.793L237.163 460.793C237.163 458.016 237.857 456.081 239.104 454.834C240.351 453.587 242.287 452.894 245.063 452.894L245.063 452.094L245.063 451.294C242.04 451.294 239.626 452.05 237.973 453.703C236.32 455.355 235.563 457.77 235.563 460.793L236.363 460.793ZM245.063 452.094V452.894H252.604V452.094V451.294H245.063V452.094ZM285.561 453.833H284.761V456.153H285.561H286.361V453.833H285.561ZM285.561 456.153V455.353H278.078V456.153V456.953H285.561V456.153ZM278.078 456.153L278.078 455.353C276.317 455.353 274.865 455.838 273.923 456.978L274.54 457.487L275.157 457.997C275.685 457.357 276.591 456.953 278.078 456.953L278.078 456.153ZM274.54 457.487H273.74V482.254H274.54H275.34V457.487H274.54ZM274.54 482.254V481.454H269.9V482.254V483.054H274.54V482.254ZM269.9 482.254H270.7V455.573H269.9H269.1V482.254H269.9ZM269.9 455.573L270.591 455.976C271.751 453.989 273.934 452.894 277.44 452.894L277.44 452.094L277.44 451.294C273.6 451.294 270.757 452.517 269.209 455.17L269.9 455.573ZM277.44 452.094V452.894H283.24V452.094V451.294H277.44V452.094ZM283.24 452.094L282.76 452.734L285.081 454.473L285.561 453.833L286.04 453.193L283.72 451.453L283.24 452.094ZM307.952 452.094V452.894C310.729 452.894 312.664 453.587 313.911 454.834C315.159 456.081 315.852 458.016 315.852 460.793L316.652 460.793L317.452 460.793C317.452 457.77 316.696 455.355 315.043 453.703C313.39 452.05 310.975 451.294 307.952 451.294V452.094ZM316.652 460.793H315.852V482.254H316.652H317.452V460.793H316.652ZM316.652 482.254V481.454H312.013V482.254V483.054H316.652V482.254ZM312.013 482.254H312.813V460.214H312.013H311.213V482.254H312.013ZM312.013 460.214H312.813C312.813 458.737 312.443 457.482 311.563 456.603C310.683 455.723 309.429 455.353 307.952 455.353V456.153V456.953C309.182 456.953 309.958 457.26 310.432 457.734C310.906 458.208 311.213 458.984 311.213 460.214H312.013ZM307.952 456.153V455.353H296.353V456.153V456.953H307.952V456.153ZM296.353 456.153H295.553V482.254H296.353H297.153V456.153H296.353ZM296.353 482.254V481.454H291.713V482.254V483.054H296.353V482.254ZM291.713 482.254H292.513V452.094H291.713H290.913V482.254H291.713ZM291.713 452.094V452.894H307.952V452.094V451.294H291.713V452.094ZM341.473 452.094V452.894C344.249 452.894 346.185 453.587 347.432 454.834C348.679 456.081 349.373 458.016 349.373 460.793L350.173 460.793L350.973 460.793C350.973 457.77 350.216 455.355 348.563 453.703C346.91 452.05 344.496 451.294 341.473 451.294V452.094ZM350.173 460.793H349.373V468.971H350.173H350.973V460.793H350.173ZM350.173 468.971V468.171H329.873V468.971V469.771H350.173V468.971ZM329.873 468.971H329.073V474.134H329.873H330.673V468.971H329.873ZM329.873 474.134L329.073 474.134C329.073 475.61 329.443 476.864 330.322 477.744C331.202 478.623 332.456 478.993 333.933 478.993L333.933 478.193L333.933 477.393C332.703 477.393 331.927 477.086 331.454 476.612C330.98 476.139 330.673 475.363 330.673 474.134L329.873 474.134ZM333.933 478.193V478.993H349.013V478.193V477.393H333.933V478.193ZM349.013 478.193H348.213V480.513H349.013H349.813V478.193H349.013ZM349.013 480.513L348.533 479.874L346.213 481.614L346.693 482.254L347.173 482.894L349.493 481.153L349.013 480.513ZM346.693 482.254V481.454H333.933V482.254V483.054H346.693V482.254ZM333.933 482.254L333.933 481.454C331.156 481.454 329.221 480.76 327.974 479.513C326.727 478.266 326.033 476.33 326.033 473.553L325.233 473.553L324.433 473.553C324.433 476.577 325.19 478.991 326.842 480.644C328.495 482.297 330.909 483.054 333.933 483.054L333.933 482.254ZM325.233 473.553H326.033V460.793H325.233H324.433V473.553H325.233ZM325.233 460.793L326.033 460.793C326.033 458.016 326.727 456.081 327.974 454.834C329.221 453.587 331.156 452.894 333.933 452.894L333.933 452.094L333.933 451.294C330.909 451.294 328.495 452.05 326.843 453.703C325.19 455.355 324.433 457.77 324.433 460.793L325.233 460.793ZM333.933 452.094V452.894H341.473V452.094V451.294H333.933V452.094ZM68.585 446.641L68.5849 445.841C67.1471 445.841 65.9219 446.201 65.0618 447.062C64.2016 447.922 63.8417 449.147 63.8416 450.585L64.6416 450.585L65.4416 450.585C65.4417 449.394 65.7389 448.647 66.1931 448.193C66.6474 447.739 67.3938 447.441 68.585 447.441L68.585 446.641ZM64.6416 450.585H63.8416V473.901H64.6416H65.4416V450.585H64.6416ZM64.6416 473.901H63.8416C63.8416 475.339 64.2015 476.564 65.0616 477.425C65.9217 478.285 67.147 478.645 68.5849 478.645L68.585 477.845L68.585 477.045C67.3938 477.045 66.6474 476.748 66.1931 476.294C65.7388 475.839 65.4416 475.093 65.4416 473.901H64.6416ZM68.585 477.845V478.645H82.2734V477.845V477.045H68.585V477.845ZM82.2734 477.845L82.2735 478.645C83.7114 478.645 84.9367 478.285 85.7968 477.425C86.6569 476.564 87.0168 475.339 87.0168 473.901H86.2168H85.4168C85.4168 475.092 85.1196 475.839 84.6653 476.294C84.211 476.748 83.4646 477.045 82.2734 477.045L82.2734 477.845ZM86.2168 473.901H87.0168V450.585H86.2168H85.4168V473.901H86.2168ZM86.2168 450.585L87.0168 450.585C87.0167 449.147 86.6568 447.922 85.7966 447.062C84.9365 446.201 83.7113 445.841 82.2735 445.841L82.2734 446.641L82.2734 447.441C83.4646 447.441 84.211 447.739 84.6652 448.193C85.1195 448.647 85.4167 449.394 85.4168 450.585L86.2168 450.585ZM82.2734 446.641V445.841H68.585V446.641V447.441H82.2734V446.641ZM245.063 456.153L245.063 455.353C243.587 455.353 242.332 455.723 241.453 456.603C240.574 457.483 240.204 458.737 240.204 460.214H241.004H241.804C241.804 458.984 242.111 458.208 242.585 457.734C243.058 457.26 243.834 456.953 245.064 456.953L245.063 456.153ZM241.004 460.214H240.204V465.201H241.004H241.804V460.214H241.004ZM241.004 465.201V466.001H256.664V465.201V464.401H241.004V465.201ZM256.664 465.201H257.464V460.214H256.664H255.864V465.201H256.664ZM256.664 460.214H257.464C257.464 458.737 257.094 457.482 256.214 456.603C255.335 455.723 254.08 455.353 252.604 455.353V456.153V456.953C253.833 456.953 254.609 457.26 255.083 457.734C255.557 458.208 255.864 458.984 255.864 460.214H256.664ZM252.604 456.153V455.353H245.063V456.153V456.953H252.604V456.153ZM333.933 456.153L333.933 455.353C332.456 455.353 331.202 455.723 330.322 456.603C329.443 457.483 329.073 458.737 329.073 460.214H329.873H330.673C330.673 458.984 330.98 458.208 331.454 457.734C331.927 457.26 332.703 456.953 333.933 456.953L333.933 456.153ZM329.873 460.214H329.073V465.201H329.873H330.673V460.214H329.873ZM329.873 465.201V466.001H345.533V465.201V464.401H329.873V465.201ZM345.533 465.201H346.333V460.214H345.533H344.733V465.201H345.533ZM345.533 460.214H346.333C346.333 458.737 345.963 457.482 345.084 456.603C344.204 455.723 342.949 455.353 341.473 455.353V456.153V456.953C342.703 456.953 343.478 457.26 343.952 457.734C344.426 458.208 344.733 458.984 344.733 460.214H345.533ZM341.473 456.153V455.353H333.933V456.153V456.953H341.473V456.153ZM191.233 446.468V445.668H186.129V446.468V447.268H191.233V446.468ZM186.129 446.468H186.929V441.015H186.129H185.329V446.468H186.129ZM186.129 441.015V441.815H191.233V441.015V440.215H186.129V441.015ZM191.233 441.015H190.433V446.468H191.233H192.033V441.015H191.233ZM208.939 246.033L209.2 246.789C210.618 246.301 212.188 246.606 213.32 247.589L213.845 246.985L214.369 246.381C212.806 245.024 210.637 244.602 208.679 245.277L208.939 246.033ZM213.845 246.985L213.32 247.589L246.442 276.348L246.967 275.744L247.491 275.14L214.369 246.381L213.845 246.985ZM246.967 275.744L246.444 276.349L363.766 377.618L364.289 377.012L364.812 376.407L247.49 275.138L246.967 275.744ZM364.289 377.012L363.766 377.618C366.208 379.726 365.461 383.685 362.419 384.758L362.686 385.512L362.952 386.267C367.152 384.785 368.184 379.317 364.812 376.407L364.289 377.012ZM362.686 385.512L362.419 384.758L350.517 388.958L350.783 389.713L351.049 390.467L362.952 386.267L362.686 385.512ZM350.783 389.713L350.517 388.958C349.096 389.459 347.515 389.162 346.375 388.178L345.853 388.784L345.33 389.39C346.905 390.749 349.088 391.159 351.049 390.467L350.783 389.713ZM345.853 388.784L346.375 388.178L273.172 325.021L272.649 325.627L272.127 326.232L345.33 389.39L345.853 388.784ZM272.649 325.627L272.389 324.87L89.3782 387.887L89.6387 388.643L89.8991 389.4L272.91 326.383L272.649 325.627ZM89.6387 388.643L89.3782 387.887C87.9604 388.375 86.3892 388.07 85.2569 387.087L84.7324 387.691L84.2079 388.295C85.7716 389.653 87.9411 390.074 89.8991 389.4L89.6387 388.643ZM84.7324 387.691L85.2569 387.087L10.2481 321.959L9.72363 322.563L9.19914 323.167L84.2079 388.295L84.7324 387.691ZM9.72363 322.563L10.2481 321.959C7.80613 319.839 8.57652 315.87 11.6345 314.817L11.374 314.06L11.1135 313.304C6.89077 314.758 5.8267 320.239 9.19913 323.167L9.72363 322.563ZM11.374 314.06L11.6345 314.817L209.2 246.789L208.939 246.033L208.679 245.277L11.1136 313.304L11.374 314.06ZM264.224 29.95L265.009 30.0999C265.614 26.9314 269.416 25.5982 271.867 27.6954L272.387 27.0876L272.907 26.4799C269.523 23.5835 264.272 25.4249 263.438 29.8001L264.224 29.95ZM272.387 27.0876L271.866 27.6954L281.455 35.9034L281.976 35.2957L282.496 34.6879L272.907 26.4799L272.387 27.0876ZM281.976 35.2957L281.455 35.9034C282.6 36.8829 283.132 38.4006 282.85 39.8803L283.636 40.03L284.422 40.1797C284.811 38.1364 284.076 36.0407 282.496 34.6879L281.976 35.2957ZM283.636 40.03L282.85 39.8803L264.833 134.448L265.619 134.597L266.405 134.747L284.422 40.1797L283.636 40.03ZM265.619 134.597L265.094 135.201L411.013 262.047L411.538 261.443L412.063 260.839L266.144 133.994L265.619 134.597ZM411.538 261.443L411.013 262.047C412.145 263.031 412.667 264.544 412.382 266.016L413.167 266.168L413.952 266.32C414.346 264.287 413.626 262.198 412.063 260.839L411.538 261.443ZM413.167 266.168L412.382 266.016L393.483 363.539L394.269 363.691L395.054 363.843L413.952 266.32L413.167 266.168ZM394.269 363.691L393.483 363.539C392.868 366.714 389.045 368.031 386.604 365.91L386.079 366.513L385.554 367.117C388.925 370.047 394.204 368.228 395.054 363.843L394.269 363.691ZM386.079 366.513L386.604 365.91L228.909 228.827L228.384 229.43L227.859 230.034L385.554 367.117L386.079 366.513ZM228.384 229.43L228.909 228.827C227.777 227.843 227.255 226.33 227.54 224.858L226.755 224.706L225.969 224.554C225.576 226.587 226.296 228.676 227.859 230.034L228.384 229.43ZM226.755 224.706L227.54 224.858L246.439 127.335L245.653 127.182L244.868 127.03L225.969 224.554L226.755 224.706ZM245.653 127.182L246.439 127.335C246.463 127.211 246.493 127.088 246.528 126.964L245.759 126.745L244.989 126.526C244.944 126.686 244.902 126.855 244.868 127.03L245.653 127.182ZM245.759 126.745L246.545 126.895L265.009 30.0999L264.224 29.95L263.438 29.8L244.973 126.595L245.759 126.745ZM237.969 8.28003L238.23 9.0363C241.287 7.98157 244.34 10.6333 243.723 13.808L244.508 13.9607L245.293 14.1133C246.145 9.72899 241.93 6.06731 237.708 7.52376L237.969 8.28003ZM244.508 13.9607L243.723 13.808L203.852 218.918L204.638 219.071L205.423 219.224L245.293 14.1133L244.508 13.9607ZM204.638 219.071L203.852 218.918C203.566 220.39 202.517 221.598 201.099 222.087L201.36 222.844L201.621 223.6C203.579 222.924 205.028 221.256 205.423 219.224L204.638 219.071ZM201.36 222.844L201.099 222.087L114.005 252.132L114.266 252.888L114.527 253.645L201.621 223.6L201.36 222.844ZM114.266 252.888L114.003 252.133L14.7867 286.685L15.0498 287.44L15.3129 288.196L114.529 253.644L114.266 252.888ZM15.0498 287.44L14.7867 286.685C11.7408 287.745 8.6855 285.119 9.27668 281.948L8.49023 281.802L7.70379 281.655C6.88742 286.033 11.1065 289.66 15.3129 288.196L15.0498 287.44ZM8.49023 281.802L9.27668 281.948L11.5902 269.541L10.8037 269.394L10.0173 269.248L7.70379 281.655L8.49023 281.802ZM10.8037 269.394L11.5902 269.541C11.8663 268.06 12.9149 266.841 14.3375 266.345L14.0742 265.59L13.8109 264.834C11.8469 265.519 10.3987 267.203 10.0173 269.248L10.8037 269.394ZM14.0742 265.59L14.3375 266.345L104.146 235.045L103.883 234.29L103.62 233.534L13.8109 264.834L14.0742 265.59ZM103.883 234.29L104.668 234.442L141.569 44.6006L140.784 44.448L139.999 44.2954L103.098 234.137L103.883 234.29ZM140.784 44.448L141.569 44.6006C141.856 43.1288 142.905 41.921 144.323 41.4318L144.062 40.6755L143.801 39.9193C141.843 40.5948 140.394 42.2626 139.999 44.2954L140.784 44.448ZM144.062 40.6755L144.322 41.4318L238.23 9.03629L237.969 8.28003L237.708 7.52376L143.801 39.9193L144.062 40.6755Z" fill="#888888" fill-opacity="0.5" mask="url(#path-1-inside-1_41_94)"/>
</g>
<defs>
<filter id="filter0_dn_41_94" x="0" y="0" width="421.258" height="490.718" filterUnits="userSpaceOnUse" color-interpolation-filters="sRGB">
<feFlood flood-opacity="0" result="BackgroundImageFix"/>
<feColorMatrix in="SourceAlpha" type="matrix" values="0 0 0 0 0 0 0 0 0 0 0 0 0 0 0 0 0 0 127 0" result="hardAlpha"/>
<feOffset/>
<feGaussianBlur stdDeviation="4"/>
<feComposite in2="hardAlpha" operator="out"/>
<feColorMatrix type="matrix" values="0 0 0 0 0 0 0 0 0 0 0 0 0 0 0 0 0 0 0.25 0"/>
<feBlend mode="normal" in2="BackgroundImageFix" result="effect1_dropShadow_41_94"/>
<feBlend mode="normal" in="SourceGraphic" in2="BackgroundImageFix" result="shape"/>
<feTurbulence type="fractalNoise" baseFrequency="1 1" stitchTiles="stitch" numOctaves="3" result="noise" seed="8719" />
<feColorMatrix in="noise" type="luminanceToAlpha" result="alphaNoise" />
<feComponentTransfer in="alphaNoise" result="coloredNoise1">
<feFuncA type="discrete" tableValues="0 0 0 0 0 0 0 0 0 0 0 0 1 1 1 1 1 1 1 1 1 1 1 1 1 1 1 1 1 1 1 1 1 1 1 1 1 1 0 0 0 0 0 0 0 0 0 0 0 0 0 0 0 0 0 0 0 0 0 0 0 0 0 0 0 0 0 0 0 0 0 0 0 0 0 0 0 0 0 0 0 0 0 0 0 0 0 0 0 0 0 0 0 0 0 0 0 0 0 0 "/>
</feComponentTransfer>
<feComposite operator="in" in2="shape" in="coloredNoise1" result="noise1Clipped" />
<feFlood flood-color="rgba(0, 0, 0, 0.25)" result="color1Flood" />
<feComposite operator="in" in2="noise1Clipped" in="color1Flood" result="color1" />
<feMerge result="effect2_noise_41_94">
<feMergeNode in="shape" />
<feMergeNode in="color1" />
</feMerge>
<feBlend mode="normal" in="effect2_noise_41_94" in2="effect1_dropShadow_41_94" result="effect2_noise_41_94"/>
</filter>
<linearGradient id="paint0_linear_41_94" x1="158.464" y1="506.95" x2="259.758" y2="-0.513795" gradientUnits="userSpaceOnUse">
<stop stop-color="#717171"/>
<stop offset="1" stop-color="#D7D7D7"/>
</linearGradient>
</defs>
</svg>
